<svg version="1" xmlns="http://www.w3.org/2000/svg" width="597.333" height="597.333" viewBox="0 0 448.000000 448.000000"><path d="M218.7 63.6c-.4.4-.7 2.2-.7 4.1 0 2.9-.3 3.3-2.7 3.4-1.6.1-3.1.1-3.5 0-2.1-.3-3.5 9.5-1.7 11.3.4.4 4.2 1.2 7.2 1.5.4.1.7 4.6.7 10.1s-.3 10-.7 10c-2.9.1-14.7 3.2-17.5 4.5-4.7 2.4-9.7 7.4-11.5 11.5-.8 1.9-1.6 6.1-1.8 9.3-.3 6.6-1 7.6-7 11.1-9.6 5.7-15.7 16.1-16 27.3-.4 11.7 2.5 18.5 15.2 37 13.1 18.9 18.3 35.2 18.6 57.8.3 24.2-1.3 28.9-16.5 49.4-11.4 15.5-15.1 21.8-16.7 29.1-.5 2.5-.9 12.6-.8 22.5l.2 18 59.9.3c43.9.1 60.2-.1 60.7-.9.4-.6.7-8.9.6-18.3 0-12.8-.4-18.6-1.7-23.2-1.6-6-7-16.6-10.9-21.4-15.8-19.8-19.5-26.2-20.6-36.6-.7-6.1-.6-27.4 0-32.4 2.5-17.8 6.4-27.4 18.9-46.4 11.9-17.9 14-22.9 14.1-33.6 0-6.5-.4-8.4-3.3-14.2-3-6.1-7.4-11-13.2-14.8-5.9-3.9-6.2-4.4-6.6-10.7-.5-10.7-5.8-17.8-15.7-21.3-3.1-1.1-6.2-2-6.9-2-.7 0-3-.5-5-1.1l-3.8-1V84l4-.6c2.7-.4 4.1-1.2 4.2-2.3.8-8.8.2-10.1-4.8-10.1-3.1 0-3.3-.2-3.6-3.8l-.3-3.7-5-.3c-2.8-.2-5.4 0-5.8.4z"/><path d="M135 120.4c-3.1 1.4-6.3 4.9-9.2 10.3-2.2 4-2.3 4.1-7.3 4.1-2.8 0-6.1.6-7.3 1.3-2.4 1.5-5.5 7.5-6.7 12.9-.9 4.4-6.5 15.5-12 24-3.9 6.2-6.7 9.2-19.2 20.5-11.1 10-11 20.9.2 34.4 5.1 6.1 9.8 9.4 13.3 9.3 1.5 0 6.9-1.9 11.9-4.1 9.8-4.3 17.3-6.7 23.8-7.7 13.4-1.9 18.5-4.4 27.8-13.5 6.3-6.2 9.2-7.2 12.1-4.3 2 1.9 2 3.2 0 11.4-4.8 20.8-12.9 35.4-28.5 51.5-21.9 22.6-26.6 28.3-32.3 38.6-9.1 16.5-13.6 36-13.1 56 .1 6.9.8 13.6 1.4 14.8 1.2 2.1 1.5 2.1 33.1 2.1 23.3 0 32.1-.3 32.6-1.2.4-.6.8-10.2.9-21.2.3-26.2 1-28.3 18.9-52.1 7.5-9.9 9.9-14.2 12.8-22.5 2.5-7.2 3.1-22.5 1.2-34.5-2.9-18.2-7.6-29.8-18.9-46-13.3-19.2-17-32.4-12.9-46.2 2.4-8.1 8.7-16.9 15.8-22.2 2.5-1.9 4.3-3.8 4-4.3-1.1-1.7-4.9-2.5-7-1.6-1.6.7-2.8.6-4.5-.5-1.3-.9-2.6-1.7-2.9-1.9-.3-.2-1.8.5-3.4 1.5l-2.7 1.8-6.1-5c-6.8-5.5-12-7.4-15.8-5.7zM305.3 121c-2.1.9-6.1 3.6-9 5.8-5.1 4.1-5.2 4.1-8.3 2.6-2.8-1.4-3.3-1.4-5.4 0-1.9 1.2-3.2 1.3-5.7.6-2.7-.8-3.7-.7-5.1.8-1.7 1.7-1.6 1.9 3.3 5.7 13.6 10.8 19.1 26.1 15.3 42.6-1.9 8.1-5.3 14.8-14.6 28.4-7.9 11.5-11.2 18.3-14.7 30-2.9 9.9-3.2 12.5-3.6 25.7-.5 19.9 1.7 26.2 14.8 43.8 18 24.1 18.9 26.6 19.1 53 .1 10.7.5 20.1.9 20.8 1.2 1.8 64 1.8 65.4-.1 1.2-1.6 1.8-7.8 1.7-20.2 0-11.3-.5-14.9-4-28.3-5.1-19.8-13.1-32.5-33.1-52.7-14.5-14.8-21.6-23.7-27.2-34.5-3.7-7.1-7.6-17.6-8.6-23-.3-1.4-.9-4.1-1.5-6-1.4-4.8-1.3-6.6.6-8.4 2.8-2.8 5.7-1.8 12.2 4.4 9.4 8.9 13.6 11.3 22.7 12.7 3.1.4 5.5.9 10.1 1.8 4.4.9 14.5 4.7 20.9 7.7 9.5 4.4 13.7 3.8 20-3 6.9-7.3 10.5-13.5 11.2-19 1-8.4-1.3-12.8-11.4-21.9-4.8-4.3-9.8-9-11.3-10.5-3.3-3.4-15.8-26.7-16.7-31.1-1-5.5-4.2-11.2-7.1-12.8-1.7-1-4.4-1.5-7.2-1.2-4.4.3-4.5.2-6.9-4.2-3-5.6-7.5-10.1-10.7-10.8-1.3-.2-4 .4-6.1 1.3z"/></svg>