<svg xmlns="http://www.w3.org/2000/svg" viewBox="0 0 497.08 500.14">
    <defs>
        <style>.a{fill:#fff;}</style>
    </defs>
    <title>Chess Analysis Logo</title>
    <path class="a"
          d="M238.75,12.5a12.45,12.45,0,0,0,.43-1.49c0.39-3.54,0-9.83,1.26-10.15,4.83-1.28,10.16-.77,15.3-0.67,0.67,0,1.59,1.43,1.89,2.36A11.88,11.88,0,0,1,257.78,6c0,7,.05,7.25,7.07,6.85,5-.28,7.25,1.3,6.5,6.42a14.12,14.12,0,0,0,0,2c0,10.05,0,10.12-10,10.76-2.47.16-3.58,0.88-3.55,3.52,0.1,8.66.18,17.33,0,26-0.1,4,2.88,3.33,5.07,3.92,8.14,2.2,16.72,3.37,24.35,6.72,14,6.15,21.71,20.66,19.93,35.89-0.55,4.71.65,7,4.77,9.33,17.1,9.59,29,23.16,31.63,43.46a21,21,0,0,1,0,8.42c-1.25,21.76-14.5,38.84-27.17,56.19-15.58,21.33-22.94,45.77-25.35,71.56-1.35,14.46-.8,29.23.29,43.75,1.3,17.38,10.4,31.53,21.08,44.91,10.47,13.11,21.31,26.17,27.08,42.27a58.12,58.12,0,0,1,3.73,17.44c0.51,16.32.09,32.66,0.27,49,0,4.3-1.33,5.74-5.74,5.73q-89.49-.2-179,0c-3.48,0-5.05-.68-5-4.66,0.13-16.83-.51-33.67,0-50.48,0.43-14.27,6.95-26.58,15.11-37.94q11.07-15.41,22.69-30.43c10.08-13,14.35-28.2,15.52-44.1,2.21-30.16-1.78-59.65-14.91-87.08-5.77-12-14.16-22.86-21.68-34-9.16-13.57-16.64-27.73-16.93-44.58-0.32-18,7.82-32,21.7-42.82,3.79-3,8.2-5.11,12-8,1.4-1.07,2.88-3.34,2.74-4.93-2.34-26.66,13-39.75,34.9-44.21a107.56,107.56,0,0,1,10.86-1.59c2.75-.27,3.56-1.55,3.52-4.23-0.14-8.33-.16-16.67,0-25,0.08-3.23-1.35-3.87-4.17-4-9.38-.31-9.38-0.4-9.41-9.29,0-9.5,0-9.49,9.5-9.81C236.32,12.9,237.45,12.66,238.75,12.5Z"/>
    <path class="a"
          d="M91,113.33c2.57-4.58,4.77-9.06,7.48-13.22,8.41-12.91,19-14.55,31.14-4.87,4.8,3.83,9.36,8,14,12,7.24-6.17,11.11-6.18,17.56-.1,7.32-4.15,11.09-3.81,15.52,1.76-3.39,2.62-6.88,5.12-10.15,7.88-24.39,20.53-31.2,50.47-17.18,79.8a184.22,184.22,0,0,0,19.09,30.9c17.12,22.77,24.49,48.68,27.37,76.45,1.44,13.9,1.38,27.73-2.23,41.13a81.63,81.63,0,0,1-10.2,23c-8.53,13.09-18.59,25.18-27.35,38.13a75.51,75.51,0,0,0-13.41,46.62c0.59,14,0,28,.15,42,0,3.7-.8,5.33-5,5.31-31.33-.16-62.65-0.11-94-0.06-3,0-5-.41-5.52-4-3-22.3-3.34-44.47,2.73-66.65-1.51-.12,8.86-28.43,9.91-31C58.71,379.43,71,363.63,85,349c11.31-11.75,23-23.21,33.76-35.42,14.67-16.57,24.18-36.15,30.58-57.22a199.12,199.12,0,0,0,5-22.26c0.68-3.73-.28-7.57-4.07-9.46s-7.51-.34-10.55,2.27a78.15,78.15,0,0,0-7.89,7.63c-10,11.41-22.47,17.6-37.61,19.43-16.31,2-31.7,7.42-46.35,14.82-13.61,6.87-20.21,6-30.37-5.3C10.7,255.9,3.51,248.33,1,237.8c-2.73-11.62-.1-22,8.38-30.23,7.13-7,15.51-12.67,22.38-19.85,5.42-5.67,9.76-12.51,13.92-19.23,4.63-7.48,8.61-15.36,12.67-23.17a46.26,46.26,0,0,0,2.82-7.94c0.77-2.54,1.23-5.17,2-7.71C68.07,113.72,74.19,110.06,91,113.33Z"/>
    <path class="a"
          d="M354.49,162.54c-0.83-6.26-.16-8.09-2.61-14.67-4.95-17.51-17.42-29-31.64-38.91,4.49-5.7,8.15-6,15.56-1.89,6.78-6.17,10.34-6.14,17.15-.1,6.66-5.06,12.9-10.67,19.95-14.93,9.28-5.6,17-3.66,23.48,5.19,3.6,4.94,6.43,10.45,9.79,16,0.54-.08,1.34-0.13,2.11-0.3,13-2.89,20.34,1.17,24.61,13.75a42.52,42.52,0,0,1,2.09,7.69c1.45,10.48,9,18,13,27.31a100.65,100.65,0,0,0,9.51,17.48c2.88,4.14,7,7.46,10.76,10.93,7,6.43,14.57,12.25,21,19.13,10,10.69,10.4,27.91,1.24,40.62a148.41,148.41,0,0,1-14.16,16.77c-7.42,7.6-14.39,8.49-24,3.68-17.25-8.64-35.28-14.75-54.47-17.17-12.32-1.55-22.18-7.54-30.62-16.32-3.23-3.36-6.51-6.69-10-9.77-3-2.63-6.6-4.33-10.53-2.36s-5,6.05-4.09,9.91c2.27,10,4.56,20.07,7.76,29.81,9.6,29.27,28.21,52.53,50.21,73.39,12.47,11.82,24.1,24.3,33.69,38.7,14.46,21.72,21,46.11,25.26,71.33,2.66,15.92,1.12,31.88-.8,47.79-0.4,3.28-1.86,4.44-5.21,4.43q-47.25-.14-94.49,0c-3.86,0-4.8-1.46-4.77-5,0.12-14.33-.47-28.68.13-43,0.8-18.92-5.68-35.25-16.24-50.3q-11-15.74-22.84-30.94A67.32,67.32,0,0,1,301.53,336c-3.4-30.63,1.06-60.23,14.45-87.92,5.59-11.57,14-21.78,21.22-32.57,9.36-14,16.51-28.89,17.28-46.14C354.57,167.28,354.49,165.14,354.49,162.54Z"/>
</svg>